#!OML:ASF G:\JayActor3\Patient Classification 1\Patient 1\Session 5\male.ASF
:FULLY-SPECIFIED
:DEGREES
853
root -8.43702 16.9386 5.30304 0.40395 -135.517 6.4511
lowerback 9.37319 -2.12759 6.05371
upperback 0.400999 -2.20845 0.577309
thorax -5.04963 -1.24655 -2.49428
lowerneck 1.51606 -1.77959 0.207021
upperneck 0.122113 -2.38434 2.83486
head -0.178095 -1.2122 0.841036
rclavicle 4.67144e-015 2.127e-014
rhumerus -35.918 -23.6004 -75.7114
rradius 11.18
rwrist 33.1139
rhand -15.9248 -5.4211
rfingers 7.12502
rthumb 10.2727 -35.1502
lclavicle 4.67144e-015 2.127e-014
lhumerus -31.6394 23.0887 76.7078
lradius 8.89963
lwrist 5.46265
lhand -25.3686 17.4888
lfingers 7.12502
lthumb 1.1556 47.4654
rfemur -13.4222 18.894 30.4173
rtibia 32.1911
rfoot -25.3802 -17.0206
rtoes 10.3664
lfemur -12.7492 4.05367 -14.4964
ltibia 63.9599
lfoot 8.19455 -3.18278
ltoes -14.2341
854
root -8.60669 16.9233 5.09457 -1.00569 -134.931 8.10706
lowerback 9.42181 -2.12972 7.42546
upperback 0.449245 -2.06228 0.941565
thorax -5.04925 -1.20835 -2.89958
lowerneck 1.47039 -2.01086 0.0617849
upperneck -0.00843455 -2.69004 2.84997
head -0.204044 -1.36498 0.871998
rclavicle 1.59525e-014 -1.25234e-014
rhumerus -35.5479 -23.4304 -75.7708
rradius 11.2756
rwrist 32.9582
rhand -16.2529 -5.42236
rfingers 7.12502
rthumb 9.95622 -35.1669
lclavicle 1.59525e-014 -1.25234e-014
lhumerus -31.5478 22.2269 77.3845
lradius 8.77233
lwrist 6.48635
lhand -25.6844 17.836
lfingers 7.12502
lthumb 0.850588 47.8141
rfemur -11.278 17.5629 32.0455
rtibia 30.4964
rfoot -25.0166 -16.4261
rtoes 10.2208
lfemur -15.9581 3.97789 -13.1377
ltibia 67.7188
lfoot 7.02575 -3.92654
ltoes -13.7364
855
root -8.77746 16.9088 4.88586 -2.29402 -134.381 9.71974
lowerback 9.37483 -2.12189 8.71638
upperback 0.470117 -1.92267 1.30018
thorax -5.01699 -1.17202 -3.26428
lowerneck 1.45276 -2.23363 -0.0887231
upperneck -0.198715 -2.98291 2.88312
head -0.252252 -1.51219 0.910422
rclavicle -1.717e-014 -1.09332e-014
rhumerus -35.17 -23.3148 -75.7796
rradius 11.3538
rwrist 32.9862
rhand -16.5542 -5.42974
rfingers 7.12502
rthumb 9.66547 -35.188
lclavicle -1.717e-014 -1.09332e-014
lhumerus -31.4956 21.3871 78.0448
lradius 8.63852
lwrist 7.54095
lhand -25.8462 18.1506
lfingers 7.12502
lthumb 0.694326 48.1292
rfemur -9.25119 15.9723 33.4882
rtibia 28.7158
rfoot -24.619 -15.4982
rtoes 9.95161
lfemur -19.201 3.90169 -11.9494
ltibia 70.8145
lfoot 5.62672 -4.26585
ltoes -13.5098
856
root -8.9466 16.8958 4.67504 -3.33336 -133.837 11.0949
lowerback 9.252 -2.09618 9.75889
upperback 0.462324 -1.79624 1.6162
thorax -4.9631 -1.13623 -3.53233
lowerneck 1.47418 -2.44932 -0.235729
upperneck -0.432428 -3.26544 2.94364
head -0.319563 -1.65518 0.958069
rclavicle -9.36027e-014 -1.98785e-014
rhumerus -34.7775 -23.1331 -75.8335
rradius 11.4422
rwrist 33.0344
rhand -16.8108 -5.45807
rfingers 7.12502
rthumb 9.41792 -35.2277
lclavicle -9.36027e-014 -1.98785e-014
lhumerus -31.476 20.5495 78.6787
lradius 8.50645
lwrist 8.61188
lhand -25.8806 18.4297
lfingers 7.12502
lthumb 0.66104 48.4084
rfemur -7.39571 14.2839 34.6466
rtibia 27.0007
rfoot -24.221 -14.3715
rtoes 9.68708
lfemur -22.4402 3.79197 -11.0726
ltibia 73.2109
lfoot 4.13618 -4.23309
ltoes -13.3728
857
root -9.11282 16.8848 4.4606 -4.03434 -133.276 12.0804
lowerback 9.0812 -2.0524 10.4371
upperback 0.428444 -1.68978 1.8584
thorax -4.90113 -1.10098 -3.67181
lowerneck 1.52365 -2.65675 -0.378821
upperneck -0.665811 -3.53738 3.04389
head -0.390643 -1.79355 1.01831
rclavicle -2.85008e-014 -1.20265e-014
rhumerus -34.3867 -22.9215 -75.9261
rradius 11.5279
rwrist 33.1278
rhand -17.0609 -5.46658
rfingers 7.12502
rthumb 9.1766 -35.2469
lclavicle -2.85008e-014 -1.20265e-014
lhumerus -31.4803 19.7071 79.2735
lradius 8.38007
lwrist 9.68401
lhand -25.8425 18.686
lfingers 7.12502
lthumb 0.697817 48.6646
rfemur -5.67806 12.6463 35.4658
rtibia 25.3683
rfoot -23.8347 -13.2092
rtoes 9.53733
lfemur -25.5952 3.59915 -10.6048
ltibia 74.8255
lfoot 2.54373 -4.04499
ltoes -13.1918
858
root -9.27576 16.8759 4.2421 -4.39498 -132.685 12.6441
lowerback 8.90638 -1.99377 10.7338
upperback 0.365331 -1.59989 2.02156
thorax -4.8606 -1.06503 -3.67951
lowerneck 1.58065 -2.86052 -0.51997
upperneck -0.84492 -3.80614 3.18294
head -0.445288 -1.93044 1.09029
rclavicle -2.56432e-014 9.49197e-015
rhumerus -34.0014 -22.5856 -76.1116
rradius 11.6273
rwrist 33.1063
rhand -17.3264 -5.43471
rfingers 7.12502
rthumb 8.92043 -35.2261
lclavicle -2.56432e-014 9.49197e-015
lhumerus -31.5095 18.8518 79.8264
lradius 8.25613
lwrist 10.7487
lhand -25.7817 18.8898
lfingers 7.12502
lthumb 0.75657 48.8682
rfemur -4.09949 11.1909 35.9796
rtibia 23.9071
rfoot -23.4812 -12.2151
rtoes 9.26678
lfemur -28.5721 3.29735 -10.5418
ltibia 75.5978
lfoot 0.809343 -3.86742
ltoes -13.0239
859
root -9.43854 16.8692 4.01942 -4.49322 -132.106 12.8741
lowerback 8.74785 -1.91838 10.7491
upperback 0.271099 -1.50899 2.11751
thorax -4.85632 -1.02299 -3.60123
lowerneck 1.62628 -3.05934 -0.657572
upperneck -0.919374 -4.07124 3.34662
head -0.464897 -2.0649 1.16811
rclavicle 1.58748e-014 -1.61264e-014
rhumerus -33.6605 -22.1835 -76.3422
rradius 11.7286
rwrist 32.9994
rhand -17.6219 -5.35281
rfingers 7.12502
rthumb 8.63527 -35.1562
lclavicle 1.58748e-014 -1.61264e-014
lhumerus -31.5778 17.9864 80.3313
lradius 8.14047
lwrist 11.7646
lhand -25.6689 19.1055
lfingers 7.12502
lthumb 0.865553 49.0835
rfemur -2.60081 10.0367 36.2979
rtibia 22.5995
rfoot -23.1315 -11.5231
rtoes 8.83427
lfemur -31.2491 2.90578 -10.7798
ltibia 75.4593
lfoot -1.04716 -3.83982
ltoes -12.8026
860
root -9.60217 16.8612 3.79441 -4.4114 -131.577 12.8593
lowerback 8.62935 -1.83033 10.5928
upperback 0.154416 -1.40906 2.14898
thorax -4.89485 -0.973804 -3.49583
lowerneck 1.6327 -3.25144 -0.781476
upperneck -0.863439 -4.33108 3.52001
head -0.43718 -2.19552 1.24407
rclavicle -2.08766e-014 3.7818e-014
rhumerus -33.3601 -21.703 -76.6474
rradius 11.8387
rwrist 32.7524
rhand -17.9179 -5.24808
rfingers 7.12502
rthumb 8.3496 -35.0631
lclavicle -2.08766e-014 3.7818e-014
lhumerus -31.6837 17.1203 80.7714
lradius 8.03561
lwrist 12.7493
lhand -25.5514 19.2935
lfingers 7.12502
lthumb 0.979062 49.271
rfemur -1.1567 9.27043 36.5219
rtibia 21.4688
rfoot -22.7956 -11.2067
rtoes 8.21523
lfemur -33.5435 2.46133 -11.2169
ltibia 74.4036
lfoot -3.01165 -4.01694
ltoes -12.6135
861
root -9.7689 16.8619 3.56618 -4.22204 -131.128 12.683
lowerback 8.58748 -1.7414 10.35
upperback 0.00854119 -1.30287 2.12475
thorax -5.00673 -0.922523 -3.39971
lowerneck 1.60794 -3.42495 -0.880511
upperneck -0.678844 -4.57002 3.68234
head -0.365044 -2.31434 1.30956
rclavicle -1.25172e-015 -1.59028e-014
rhumerus -33.1203 -21.231 -76.9854
rradius 11.9391
rwrist 32.4539
rhand -18.2036 -5.10542
rfingers 7.12502
rthumb 8.07381 -34.9312
lclavicle -1.25172e-015 -1.59028e-014
lhumerus -31.8497 16.2869 81.1282
lradius 7.93655
lwrist 13.6992
lhand -25.4383 19.4714
lfingers 7.12502
lthumb 1.08824 49.4483
rfemur 0.264857 8.85731 36.7199
rtibia 20.4869
rfoot -22.4356 -11.2181
rtoes 7.49297
lfemur -35.3158 2.00257 -11.7599
ltibia 72.3745
lfoot -5.05291 -4.39541
ltoes -12.6869
862
root -9.93807 16.8638 3.33677 -3.94993 -130.785 12.372
lowerback 8.61701 -1.64943 10.0456
upperback -0.152978 -1.18864 2.05254
thorax -5.17483 -0.867711 -3.31936
lowerneck 1.55992 -3.57281 -0.946871
upperneck -0.407814 -4.77769 3.81103
head -0.26404 -2.41638 1.3568
rclavicle 5.53041e-014 2.49723e-015
rhumerus -32.9195 -20.7175 -77.39
rradius 12.0561
rwrist 32.0132
rhand -18.4401 -4.96277
rfingers 7.12502
rthumb 7.84555 -34.7972
lclavicle 5.53041e-014 2.49723e-015
lhumerus -32.0668 15.5106 81.4128
lradius 7.84057
lwrist 14.6237
lhand -25.3834 19.6297
lfingers 7.12502
lthumb 1.14123 49.6064
rfemur 1.63701 8.66297 36.899
rtibia 19.6893
rfoot -21.9966 -11.4573
rtoes 6.60267
lfemur -36.5516 1.54943 -12.37
ltibia 69.462
lfoot -7.1493 -4.88464
ltoes -13.1526
863
root -10.1104 16.8711 3.10547 -3.61501 -130.571 11.9498
lowerback 8.69666 -1.55048 9.68448
upperback -0.309199 -1.06673 1.94692
thorax -5.36475 -0.807629 -3.24319
lowerneck 1.50746 -3.6891 -0.987494
upperneck -0.116905 -4.94421 3.90069
head -0.158403 -2.49735 1.38673
rclavicle -3.56655e-014 -1.25172e-014
rhumerus -32.7185 -20.1682 -77.862
rradius 12.1957
rwrist 31.4249
rhand -18.6118 -4.83342
rfingers 7.12502
rthumb 7.67982 -34.674
lclavicle -3.56655e-014 -1.25172e-014
lhumerus -32.3142 14.8196 81.6408
lradius 7.74255
lwrist 15.5215
lhand -25.4018 19.7783
lfingers 7.12502
lthumb 1.12352 49.7551
rfemur 2.93478 8.50165 37.0364
rtibia 19.1021
rfoot -21.4891 -11.7135
rtoes 5.79661
lfemur -37.194 1.11377 -13.0081
ltibia 65.7281
lfoot -9.25891 -5.37309
ltoes -13.9408
864
root -10.2865 16.8835 2.87218 -3.24751 -130.499 11.4544
lowerback 8.77336 -1.43878 9.30512
upperback -0.426578 -0.93613 1.80486
thorax -5.51154 -0.73952 -3.19757
lowerneck 1.46807 -3.77355 -0.9884
upperneck 0.118033 -5.06632 3.96194
head -0.07482 -2.55662 1.40196
rclavicle 3.57735e-014 1.07095e-014
rhumerus -32.4723 -19.5203 -78.472
rradius 12.4003
rwrist 30.5662
rhand -18.6869 -4.77374
rfingers 7.12502
rthumb 7.60741 -34.6169
lclavicle 3.57735e-014 1.07095e-014
lhumerus -32.5538 14.2107 81.8116
lradius 7.64839
lwrist 16.4162
lhand -25.5813 19.8626
lfingers 7.12502
lthumb 0.950161 49.8402
rfemur 4.05979 8.20463 37.1042
rtibia 18.8804
rfoot -20.8989 -11.8352
rtoes 4.93595
lfemur -37.2538 0.716027 -13.6407
ltibia 61.3291
lfoot -11.3545 -5.74827
ltoes -15.1085
865
root -10.467 16.8992 2.63719 -2.8547 -130.572 10.9032
lowerback 8.80881 -1.31342 8.89662
upperback -0.493788 -0.801472 1.64545
thorax -5.58144 -0.664101 -3.15613
lowerneck 1.45836 -3.82095 -0.965705
upperneck 0.261327 -5.13547 3.99834
head -0.0269342 -2.59036 1.40731
rclavicle -4.92582e-014 1.35919e-014
rhumerus -32.1769 -18.7856 -79.177
rradius 12.6696
rwrist 29.4927
rhand -18.7081 -4.75179
rfingers 7.12502
rthumb 7.5869 -34.5957
lclavicle -4.92582e-014 1.35919e-014
lhumerus -32.7782 13.7094 81.9409
lradius 7.559
lwrist 17.2327
lhand -25.8674 19.9253
lfingers 7.12502
lthumb 0.673842 49.904
rfemur 4.94639 7.69745 37.0645
rtibia 19.114
rfoot -20.2066 -11.7334
rtoes 4.02425
lfemur -36.7798 0.360856 -14.2502
ltibia 56.4545
lfoot -13.3454 -5.96591
ltoes -16.2457
866
root -10.6524 16.9155 2.40051 -2.46044 -130.778 10.3227
lowerback 8.7776 -1.17903 8.46319
upperback -0.504005 -0.670333 1.48172
thorax -5.5538 -0.584742 -3.10611
lowerneck 1.47973 -3.8348 -0.930878
upperneck 0.309305 -5.15604 4.01733
head -0.0155766 -2.60081 1.4072
rclavicle 3.09793e-014 -4.14466e-014
rhumerus -31.8363 -17.9064 -79.9751
rradius 13.0161
rwrist 28.1818
rhand -18.7109 -4.75694
rfingers 7.12502
rthumb 7.58417 -34.601
lclavicle 3.09793e-014 -4.14466e-014
lhumerus -32.9822 13.3273 82.0357
lradius 7.47312
lwrist 17.9191
lhand -26.2054 19.9658
lfingers 7.12502
lthumb 0.347317 49.9452
rfemur 5.54361 7.00019 36.9064
rtibia 19.9029
rfoot -19.3926 -11.4207
rtoes 2.85581
lfemur -35.8417 0.0667885 -14.8265
ltibia 51.3401
lfoot -15.1688 -6.02085
ltoes -17.3255
